<?xml version="1.0" encoding="UTF-8" standalone="no"?>
<!DOCTYPE svg PUBLIC "-//W3C//DTD SVG 1.1//EN" "http://www.w3.org/Graphics/SVG/1.1/DTD/svg11.dtd">
<svg xmlns="http://www.w3.org/2000/svg" version="1.1" viewBox="0.00 0.00 1920.00 300.00">
<g stroke-width="2.00" fill="none" stroke-linecap="butt">
<path stroke="#ebf4fe" vector-effect="non-scaling-stroke" d="
  M 1920.00 3.31
  Q 1901.93 13.11 1880.01 21.04
  C 1834.40 37.53 1785.19 49.01 1741.98 56.90
  C 1727.03 59.63 1711.73 62.78 1697.13 65.13
  C 1574.42 84.91 1452.13 96.24 1327.80 103.96
  C 1310.71 105.02 1293.04 105.74 1275.66 106.68
  C 1261.86 107.42 1247.71 108.50 1234.17 108.78
  C 1226.55 108.93 1219.00 109.69 1211.37 109.80
  Q 1204.54 109.90 1198.78 110.25
  C 1178.61 111.48 1158.76 111.36 1138.81 112.24
  C 1108.55 113.58 1078.95 113.20 1049.07 114.13
  C 1005.68 115.49 955.77 114.83 887.34 114.71
  C 874.24 114.68 861.27 114.31 848.25 113.98
  C 834.59 113.63 818.27 113.87 803.27 113.19
  C 778.96 112.08 754.61 112.60 730.18 111.06
  C 713.10 109.99 695.73 110.62 678.67 109.11
  C 672.70 108.59 665.98 108.62 660.69 108.23
  C 653.47 107.71 645.11 107.60 639.02 107.27
  C 598.47 105.12 561.82 102.57 532.50 101.00
  C 520.68 100.36 507.18 98.88 497.16 98.13
  Q 382.65 89.61 268.91 73.88
  Q 258.51 72.45 249.12 70.99
  C 185.76 61.14 122.84 49.31 61.27 31.18
  Q 29.68 21.89 0.00 7.36"
/>
<path stroke="#859faf" vector-effect="non-scaling-stroke" d="
  M 1920.00 11.46
  Q 1890.04 27.06 1857.64 36.56
  C 1801.81 52.94 1746.13 64.55 1688.18 73.64
  Q 1616.61 84.87 1561.94 90.83
  Q 1556.19 91.45 1545.97 92.80
  C 1534.02 94.37 1519.05 95.61 1510.06 96.60
  Q 1467.08 101.34 1423.94 104.39
  C 1418.28 104.79 1412.30 105.70 1407.00 106.01
  C 1340.85 109.87 1279.49 115.03 1216.80 116.81
  Q 1206.56 117.10 1196.82 117.56
  C 1160.23 119.28 1123.57 120.01 1086.94 120.49
  C 1055.47 120.91 1023.97 121.86 992.50 121.99
  Q 845.04 122.60 697.67 116.97
  C 647.44 115.05 597.33 112.93 547.18 109.38
  C 537.31 108.68 527.32 107.56 517.68 107.03
  C 490.92 105.56 464.41 102.65 437.71 100.54
  Q 409.43 98.29 375.25 94.47
  C 292.90 85.25 213.90 74.71 134.67 57.66
  C 99.84 50.16 66.89 41.09 32.18 28.82
  Q 13.54 22.23 0.00 14.49"
/>
</g>
<path fill="#f5f6fd" d="
  M 0.00 0.00
  L 1920.00 0.00
  L 1920.00 3.31
  Q 1901.93 13.11 1880.01 21.04
  C 1834.40 37.53 1785.19 49.01 1741.98 56.90
  C 1727.03 59.63 1711.73 62.78 1697.13 65.13
  C 1574.42 84.91 1452.13 96.24 1327.80 103.96
  C 1310.71 105.02 1293.04 105.74 1275.66 106.68
  C 1261.86 107.42 1247.71 108.50 1234.17 108.78
  C 1226.55 108.93 1219.00 109.69 1211.37 109.80
  Q 1204.54 109.90 1198.78 110.25
  C 1178.61 111.48 1158.76 111.36 1138.81 112.24
  C 1108.55 113.58 1078.95 113.20 1049.07 114.13
  C 1005.68 115.49 955.77 114.83 887.34 114.71
  C 874.24 114.68 861.27 114.31 848.25 113.98
  C 834.59 113.63 818.27 113.87 803.27 113.19
  C 778.96 112.08 754.61 112.60 730.18 111.06
  C 713.10 109.99 695.73 110.62 678.67 109.11
  C 672.70 108.59 665.98 108.62 660.69 108.23
  C 653.47 107.71 645.11 107.60 639.02 107.27
  C 598.47 105.12 561.82 102.57 532.50 101.00
  C 520.68 100.36 507.18 98.88 497.16 98.13
  Q 382.65 89.61 268.91 73.88
  Q 258.51 72.45 249.12 70.99
  C 185.76 61.14 122.84 49.31 61.27 31.18
  Q 29.68 21.89 0.00 7.36
  L 0.00 0.00
  Z"
/>
<path fill="#e1f2fe" d="
  M 1920.00 3.31
  L 1920.00 11.46
  Q 1890.04 27.06 1857.64 36.56
  C 1801.81 52.94 1746.13 64.55 1688.18 73.64
  Q 1616.61 84.87 1561.94 90.83
  Q 1556.19 91.45 1545.97 92.80
  C 1534.02 94.37 1519.05 95.61 1510.06 96.60
  Q 1467.08 101.34 1423.94 104.39
  C 1418.28 104.79 1412.30 105.70 1407.00 106.01
  C 1340.85 109.87 1279.49 115.03 1216.80 116.81
  Q 1206.56 117.10 1196.82 117.56
  C 1160.23 119.28 1123.57 120.01 1086.94 120.49
  C 1055.47 120.91 1023.97 121.86 992.50 121.99
  Q 845.04 122.60 697.67 116.97
  C 647.44 115.05 597.33 112.93 547.18 109.38
  C 537.31 108.68 527.32 107.56 517.68 107.03
  C 490.92 105.56 464.41 102.65 437.71 100.54
  Q 409.43 98.29 375.25 94.47
  C 292.90 85.25 213.90 74.71 134.67 57.66
  C 99.84 50.16 66.89 41.09 32.18 28.82
  Q 13.54 22.23 0.00 14.49
  L 0.00 7.36
  Q 29.68 21.89 61.27 31.18
  C 122.84 49.31 185.76 61.14 249.12 70.99
  Q 258.51 72.45 268.91 73.88
  Q 382.65 89.61 497.16 98.13
  C 507.18 98.88 520.68 100.36 532.50 101.00
  C 561.82 102.57 598.47 105.12 639.02 107.27
  C 645.11 107.60 653.47 107.71 660.69 108.23
  C 665.98 108.62 672.70 108.59 678.67 109.11
  C 695.73 110.62 713.10 109.99 730.18 111.06
  C 754.61 112.60 778.96 112.08 803.27 113.19
  C 818.27 113.87 834.59 113.63 848.25 113.98
  C 861.27 114.31 874.24 114.68 887.34 114.71
  C 955.77 114.83 1005.68 115.49 1049.07 114.13
  C 1078.95 113.20 1108.55 113.58 1138.81 112.24
  C 1158.76 111.36 1178.61 111.48 1198.78 110.25
  Q 1204.54 109.90 1211.37 109.80
  C 1219.00 109.69 1226.55 108.93 1234.17 108.78
  C 1247.71 108.50 1261.86 107.42 1275.66 106.68
  C 1293.04 105.74 1310.71 105.02 1327.80 103.96
  C 1452.13 96.24 1574.42 84.91 1697.13 65.13
  C 1711.73 62.78 1727.03 59.63 1741.98 56.90
  C 1785.19 49.01 1834.40 37.53 1880.01 21.04
  Q 1901.93 13.11 1920.00 3.31
  Z"
/>
<path fill="#294c60" d="
  M 1920.00 11.46
  L 1920.00 300.00
  L 0.00 300.00
  L 0.00 14.49
  Q 13.54 22.23 32.18 28.82
  C 66.89 41.09 99.84 50.16 134.67 57.66
  C 213.90 74.71 292.90 85.25 375.25 94.47
  Q 409.43 98.29 437.71 100.54
  C 464.41 102.65 490.92 105.56 517.68 107.03
  C 527.32 107.56 537.31 108.68 547.18 109.38
  C 597.33 112.93 647.44 115.05 697.67 116.97
  Q 845.04 122.60 992.50 121.99
  C 1023.97 121.86 1055.47 120.91 1086.94 120.49
  C 1123.57 120.01 1160.23 119.28 1196.82 117.56
  Q 1206.56 117.10 1216.80 116.81
  C 1279.49 115.03 1340.85 109.87 1407.00 106.01
  C 1412.30 105.70 1418.28 104.79 1423.94 104.39
  Q 1467.08 101.34 1510.06 96.60
  C 1519.05 95.61 1534.02 94.37 1545.97 92.80
  Q 1556.19 91.45 1561.94 90.83
  Q 1616.61 84.87 1688.18 73.64
  C 1746.13 64.55 1801.81 52.94 1857.64 36.56
  Q 1890.04 27.06 1920.00 11.46
  Z"
/>
</svg>
